erDiagram
    Title {
        id PPN "primary key"
    }
    Vocabulary {
        id URI "primary key"
        uri PPN "unique"
    }
    Concept {
        uri URI "primary key"
        id  string "unique combined with voc"
        voc URI "foreign key and unique combined with id"
    }
    Concept }o--|| Vocabulary : "inScheme"
    Concept }o--o{ Concept : "relation"
    Title }o--o{ Concept : "subject"
    Mapping { 
        type TYPE
    }
    Mapping }o--|| Concept : "from" 
    Mapping }o--|| Concept : "to"
    Concordance {
    }
    Mapping }o--o{ Concordance : "partOf"
